<svg xmlns="http://www.w3.org/2000/svg" viewBox="0 0 1024 1024"><defs><linearGradient id="bg" x1="0" y1="0" x2="0" y2="1"><stop offset="0" stop-color="#4a4a50"/><stop offset="1" stop-color="#151517"/></linearGradient>
<linearGradient id="hl" x1="0" y1="0" x2="0" y2="1"><stop offset="0" stop-color="#fff" stop-opacity=".14"/><stop offset=".5" stop-color="#fff" stop-opacity="0"/></linearGradient>
<linearGradient id="bl" x1="0" y1="0" x2="1" y2="1"><stop offset="0" stop-color="#5ab0ff"/><stop offset="1" stop-color="#0a6cff"/></linearGradient>
<filter id="sh" x="-10%" y="-10%" width="120%" height="125%"><feDropShadow dx="0" dy="12" stdDeviation="14" flood-color="#000" flood-opacity=".3"/></filter></defs><rect width="1024" height="1024" fill="url(#bg)"/><rect width="1024" height="1024" fill="url(#hl)"/><g transform="translate(512 512) scale(1.12) translate(-512 -512)"><circle cx="372" cy="512" r="150" fill="none" stroke="#fff" stroke-opacity="0.2" stroke-width="72"/><path d="M372.0 362.0A150 150 0 1 1 229.3 558.4" fill="none" stroke="url(#bl)" stroke-width="72" stroke-linecap="round"/><g transform="translate(372 512)"><path d="M150 -36H405Q452 -36 462 0Q452 36 420 36L404 36L386 68L364 36L342 36L322 74L300 36L278 36L260 62L242 36L150 36Z" fill="#fff" stroke="#fff" stroke-width="10" stroke-linejoin="round"/></g></g></svg>